# xmcd
#
# Track frame offsets: 
#        150
#        15489
#        30464
#        44505
#        60817
#        72889
#        86193
#        104563
#        115254
#        126247
#        137972
#        152974
#        164053
#        177749
#        193021
#
# Disc length: 2754 seconds
#
# Revision: 0
# Processed by: cddbd v1.5.2PL0 Copyright (c) Steve Scherf et al.
# Submitted via: ExactAudioCopyFreeDBPlugin 1.0
#
DISCID=da0ac00f
DTITLE=Dennis Stroughmatt - Wrong Side of the World
DYEAR=2017
DGENRE=Country
TTITLE0=Wrong Side of the World
TTITLE1=Desperado
TTITLE2=Wishful Thinking
TTITLE3=Time Changes Everything
TTITLE4=My Ears Should Burn
TTITLE5=Faded Love
TTITLE6=Sing Me Back Home
TTITLE7=Wine Me Up
TTITLE8=Somebody Else Is Takin' My Place
TTITLE9=Walking the Streets
TTITLE10=Long Line of Empties
TTITLE11=Keys in the Mailbox
TTITLE12=Jambalaya
TTITLE13=Maidens Prayer
TTITLE14=Grand Texas (En Francais)
EXTD=
EXTT0=
EXTT1=
EXTT2=
EXTT3=
EXTT4=
EXTT5=
EXTT6=
EXTT7=
EXTT8=
EXTT9=
EXTT10=
EXTT11=
EXTT12=
EXTT13=
EXTT14=
PLAYORDER=
